<mxfile host="app.diagrams.net" agent="Mozilla/5.0 (Windows NT 10.0; Win64; x64) AppleWebKit/537.36 (KHTML, like Gecko) Chrome/130.0.0.0 Safari/537.36" version="24.8.1">
  <diagram id="R2lEEEUBdFMjLlhIrx00" name="Page-1">
    <mxGraphModel dx="2107" dy="1774" grid="1" gridSize="10" guides="1" tooltips="1" connect="1" arrows="1" fold="1" page="1" pageScale="1" pageWidth="850" pageHeight="1100" math="0" shadow="0" extFonts="Permanent Marker^https://fonts.googleapis.com/css?family=Permanent+Marker">
      <root>
        <mxCell id="0" />
        <mxCell id="1" parent="0" />
        <mxCell id="HZnLdI7anDRlDdsbVgVH-2" value="tb_assignment" style="rounded=0;whiteSpace=wrap;html=1;" vertex="1" parent="1">
          <mxGeometry x="325" y="410" width="120" height="60" as="geometry" />
        </mxCell>
        <mxCell id="HZnLdI7anDRlDdsbVgVH-3" value="tb_role" style="rounded=0;whiteSpace=wrap;html=1;" vertex="1" parent="1">
          <mxGeometry x="-320" y="260" width="120" height="60" as="geometry" />
        </mxCell>
        <mxCell id="HZnLdI7anDRlDdsbVgVH-4" value="tb_review&lt;span style=&quot;color: rgba(0, 0, 0, 0); font-family: monospace; font-size: 0px; text-align: start; text-wrap-mode: nowrap;&quot;&gt;%3CmxGraphModel%3E%3Croot%3E%3CmxCell%20id%3D%220%22%2F%3E%3CmxCell%20id%3D%221%22%20parent%3D%220%22%2F%3E%3CmxCell%20id%3D%222%22%20value%3D%22tb_role%22%20style%3D%22rounded%3D0%3BwhiteSpace%3Dwrap%3Bhtml%3D1%3B%22%20vertex%3D%221%22%20parent%3D%221%22%3E%3CmxGeometry%20x%3D%22140%22%20y%3D%22180%22%20width%3D%22120%22%20height%3D%2260%22%20as%3D%22geometry%22%2F%3E%3C%2FmxCell%3E%3C%2Froot%3E%3C%2FmxGraphModel%3E&lt;/span&gt;" style="rounded=0;whiteSpace=wrap;html=1;" vertex="1" parent="1">
          <mxGeometry x="720" y="260" width="120" height="60" as="geometry" />
        </mxCell>
        <mxCell id="HZnLdI7anDRlDdsbVgVH-5" value="tb_user" style="rounded=0;whiteSpace=wrap;html=1;" vertex="1" parent="1">
          <mxGeometry x="100" y="260" width="120" height="60" as="geometry" />
        </mxCell>
        <mxCell id="HZnLdI7anDRlDdsbVgVH-6" value="tb_manuscript" style="rounded=0;whiteSpace=wrap;html=1;" vertex="1" parent="1">
          <mxGeometry x="-320" y="570" width="120" height="60" as="geometry" />
        </mxCell>
        <mxCell id="HZnLdI7anDRlDdsbVgVH-7" value="tb_notfication" style="rounded=0;whiteSpace=wrap;html=1;" vertex="1" parent="1">
          <mxGeometry x="325" y="-30" width="120" height="60" as="geometry" />
        </mxCell>
        <mxCell id="HZnLdI7anDRlDdsbVgVH-8" value="tb_submission" style="rounded=0;whiteSpace=wrap;html=1;" vertex="1" parent="1">
          <mxGeometry x="100" y="570" width="120" height="60" as="geometry" />
        </mxCell>
        <mxCell id="HZnLdI7anDRlDdsbVgVH-15" style="edgeStyle=orthogonalEdgeStyle;rounded=0;orthogonalLoop=1;jettySize=auto;html=1;entryX=0.25;entryY=0;entryDx=0;entryDy=0;" edge="1" parent="1" source="HZnLdI7anDRlDdsbVgVH-9" target="HZnLdI7anDRlDdsbVgVH-5">
          <mxGeometry relative="1" as="geometry">
            <Array as="points">
              <mxPoint x="130" y="20" />
            </Array>
          </mxGeometry>
        </mxCell>
        <mxCell id="HZnLdI7anDRlDdsbVgVH-9" value="nama" style="ellipse;whiteSpace=wrap;html=1;" vertex="1" parent="1">
          <mxGeometry x="-60" width="60" height="40" as="geometry" />
        </mxCell>
        <mxCell id="HZnLdI7anDRlDdsbVgVH-16" style="edgeStyle=orthogonalEdgeStyle;rounded=0;orthogonalLoop=1;jettySize=auto;html=1;entryX=0.25;entryY=0;entryDx=0;entryDy=0;" edge="1" parent="1" source="HZnLdI7anDRlDdsbVgVH-10" target="HZnLdI7anDRlDdsbVgVH-5">
          <mxGeometry relative="1" as="geometry">
            <Array as="points">
              <mxPoint x="130" y="80" />
            </Array>
          </mxGeometry>
        </mxCell>
        <mxCell id="HZnLdI7anDRlDdsbVgVH-10" value="email" style="ellipse;whiteSpace=wrap;html=1;" vertex="1" parent="1">
          <mxGeometry x="-60" y="60" width="60" height="40" as="geometry" />
        </mxCell>
        <mxCell id="HZnLdI7anDRlDdsbVgVH-14" style="edgeStyle=orthogonalEdgeStyle;rounded=0;orthogonalLoop=1;jettySize=auto;html=1;entryX=0.25;entryY=0;entryDx=0;entryDy=0;" edge="1" parent="1" source="HZnLdI7anDRlDdsbVgVH-11" target="HZnLdI7anDRlDdsbVgVH-5">
          <mxGeometry relative="1" as="geometry">
            <mxPoint x="160" y="260" as="targetPoint" />
            <Array as="points">
              <mxPoint x="130" y="-30" />
            </Array>
          </mxGeometry>
        </mxCell>
        <mxCell id="HZnLdI7anDRlDdsbVgVH-11" value="password" style="ellipse;whiteSpace=wrap;html=1;" vertex="1" parent="1">
          <mxGeometry x="-60" y="-50" width="60" height="40" as="geometry" />
        </mxCell>
        <mxCell id="HZnLdI7anDRlDdsbVgVH-17" style="edgeStyle=orthogonalEdgeStyle;rounded=0;orthogonalLoop=1;jettySize=auto;html=1;entryX=0.25;entryY=0;entryDx=0;entryDy=0;" edge="1" parent="1" source="HZnLdI7anDRlDdsbVgVH-12" target="HZnLdI7anDRlDdsbVgVH-5">
          <mxGeometry relative="1" as="geometry">
            <Array as="points">
              <mxPoint x="130" y="140" />
            </Array>
          </mxGeometry>
        </mxCell>
        <mxCell id="HZnLdI7anDRlDdsbVgVH-12" value="afiliasi" style="ellipse;whiteSpace=wrap;html=1;" vertex="1" parent="1">
          <mxGeometry x="-60" y="120" width="60" height="40" as="geometry" />
        </mxCell>
        <mxCell id="HZnLdI7anDRlDdsbVgVH-24" style="edgeStyle=orthogonalEdgeStyle;rounded=0;orthogonalLoop=1;jettySize=auto;html=1;entryX=0.5;entryY=0;entryDx=0;entryDy=0;" edge="1" parent="1" source="HZnLdI7anDRlDdsbVgVH-23" target="HZnLdI7anDRlDdsbVgVH-3">
          <mxGeometry relative="1" as="geometry" />
        </mxCell>
        <mxCell id="HZnLdI7anDRlDdsbVgVH-23" value="nama_role" style="ellipse;whiteSpace=wrap;html=1;" vertex="1" parent="1">
          <mxGeometry x="-295" y="120" width="70" height="40" as="geometry" />
        </mxCell>
        <mxCell id="HZnLdI7anDRlDdsbVgVH-25" value="MEMILIKI" style="rhombus;whiteSpace=wrap;html=1;" vertex="1" parent="1">
          <mxGeometry x="-105" y="250" width="110" height="80" as="geometry" />
        </mxCell>
        <mxCell id="HZnLdI7anDRlDdsbVgVH-27" value="" style="edgeStyle=elbowEdgeStyle;fontSize=12;html=1;endArrow=ERone;endFill=1;rounded=0;elbow=vertical;entryX=0;entryY=0.5;entryDx=0;entryDy=0;exitX=1;exitY=0.5;exitDx=0;exitDy=0;strokeWidth=3;fillColor=#dae8fc;strokeColor=#6c8ebf;" edge="1" parent="1" source="HZnLdI7anDRlDdsbVgVH-25" target="HZnLdI7anDRlDdsbVgVH-5">
          <mxGeometry width="100" height="100" relative="1" as="geometry">
            <mxPoint x="-130" y="340" as="sourcePoint" />
            <mxPoint x="-30" y="240" as="targetPoint" />
          </mxGeometry>
        </mxCell>
        <mxCell id="HZnLdI7anDRlDdsbVgVH-28" value="" style="edgeStyle=elbowEdgeStyle;fontSize=12;html=1;endArrow=ERone;endFill=1;rounded=0;elbow=vertical;entryX=1;entryY=0.5;entryDx=0;entryDy=0;exitX=0;exitY=0.5;exitDx=0;exitDy=0;strokeWidth=3;fillColor=#dae8fc;strokeColor=#6c8ebf;" edge="1" parent="1" source="HZnLdI7anDRlDdsbVgVH-25" target="HZnLdI7anDRlDdsbVgVH-3">
          <mxGeometry width="100" height="100" relative="1" as="geometry">
            <mxPoint x="-170" y="350" as="sourcePoint" />
            <mxPoint x="-75" y="350" as="targetPoint" />
          </mxGeometry>
        </mxCell>
        <mxCell id="HZnLdI7anDRlDdsbVgVH-29" value="MEMBUAT" style="rhombus;whiteSpace=wrap;html=1;" vertex="1" parent="1">
          <mxGeometry x="105" y="400" width="110" height="80" as="geometry" />
        </mxCell>
        <mxCell id="HZnLdI7anDRlDdsbVgVH-30" value="" style="edgeStyle=elbowEdgeStyle;fontSize=12;html=1;endArrow=ERone;endFill=1;rounded=0;elbow=vertical;exitX=0.5;exitY=1;exitDx=0;exitDy=0;strokeWidth=3;fillColor=#dae8fc;strokeColor=#6c8ebf;" edge="1" parent="1" source="HZnLdI7anDRlDdsbVgVH-5" target="HZnLdI7anDRlDdsbVgVH-29">
          <mxGeometry width="100" height="100" relative="1" as="geometry">
            <mxPoint x="-20" y="410" as="sourcePoint" />
            <mxPoint x="75" y="410" as="targetPoint" />
          </mxGeometry>
        </mxCell>
        <mxCell id="HZnLdI7anDRlDdsbVgVH-31" value="" style="edgeStyle=elbowEdgeStyle;fontSize=12;html=1;endArrow=ERoneToMany;rounded=0;strokeWidth=3;fillColor=#d5e8d4;strokeColor=#82b366;elbow=vertical;entryX=0.5;entryY=0;entryDx=0;entryDy=0;exitX=0.5;exitY=1;exitDx=0;exitDy=0;" edge="1" parent="1" source="HZnLdI7anDRlDdsbVgVH-29" target="HZnLdI7anDRlDdsbVgVH-8">
          <mxGeometry width="100" height="100" relative="1" as="geometry">
            <mxPoint x="90" y="590" as="sourcePoint" />
            <mxPoint x="190" y="490" as="targetPoint" />
          </mxGeometry>
        </mxCell>
        <mxCell id="HZnLdI7anDRlDdsbVgVH-32" value="MEMILIKI" style="rhombus;whiteSpace=wrap;html=1;" vertex="1" parent="1">
          <mxGeometry x="-110" y="560" width="110" height="80" as="geometry" />
        </mxCell>
        <mxCell id="HZnLdI7anDRlDdsbVgVH-33" value="" style="edgeStyle=elbowEdgeStyle;fontSize=12;html=1;endArrow=ERoneToMany;rounded=0;strokeWidth=3;fillColor=#d5e8d4;strokeColor=#82b366;elbow=vertical;entryX=0;entryY=0.5;entryDx=0;entryDy=0;exitX=1;exitY=0.5;exitDx=0;exitDy=0;" edge="1" parent="1" source="HZnLdI7anDRlDdsbVgVH-32" target="HZnLdI7anDRlDdsbVgVH-8">
          <mxGeometry width="100" height="100" relative="1" as="geometry">
            <mxPoint x="40" y="610" as="sourcePoint" />
            <mxPoint x="40" y="700" as="targetPoint" />
          </mxGeometry>
        </mxCell>
        <mxCell id="HZnLdI7anDRlDdsbVgVH-34" value="" style="edgeStyle=elbowEdgeStyle;fontSize=12;html=1;endArrow=ERone;endFill=1;rounded=0;elbow=vertical;entryX=1;entryY=0.5;entryDx=0;entryDy=0;exitX=0;exitY=0.5;exitDx=0;exitDy=0;strokeWidth=3;fillColor=#dae8fc;strokeColor=#6c8ebf;" edge="1" parent="1" source="HZnLdI7anDRlDdsbVgVH-32" target="HZnLdI7anDRlDdsbVgVH-6">
          <mxGeometry width="100" height="100" relative="1" as="geometry">
            <mxPoint x="-225" y="610" as="sourcePoint" />
            <mxPoint x="-130" y="610" as="targetPoint" />
          </mxGeometry>
        </mxCell>
        <mxCell id="HZnLdI7anDRlDdsbVgVH-35" value="MEMPUNYAI" style="rhombus;whiteSpace=wrap;html=1;" vertex="1" parent="1">
          <mxGeometry x="330" y="250" width="110" height="80" as="geometry" />
        </mxCell>
        <mxCell id="HZnLdI7anDRlDdsbVgVH-37" value="" style="edgeStyle=elbowEdgeStyle;fontSize=12;html=1;endArrow=ERone;endFill=1;rounded=0;elbow=vertical;exitX=1;exitY=0.5;exitDx=0;exitDy=0;strokeWidth=3;fillColor=#dae8fc;strokeColor=#6c8ebf;entryX=0;entryY=0.5;entryDx=0;entryDy=0;" edge="1" parent="1" source="HZnLdI7anDRlDdsbVgVH-5" target="HZnLdI7anDRlDdsbVgVH-35">
          <mxGeometry width="100" height="100" relative="1" as="geometry">
            <mxPoint x="270" y="330" as="sourcePoint" />
            <mxPoint x="270" y="410" as="targetPoint" />
          </mxGeometry>
        </mxCell>
        <mxCell id="HZnLdI7anDRlDdsbVgVH-38" value="" style="edgeStyle=elbowEdgeStyle;fontSize=12;html=1;endArrow=ERoneToMany;rounded=0;strokeWidth=3;fillColor=#d5e8d4;strokeColor=#82b366;elbow=vertical;entryX=0.5;entryY=0;entryDx=0;entryDy=0;exitX=0.5;exitY=1;exitDx=0;exitDy=0;" edge="1" parent="1" source="HZnLdI7anDRlDdsbVgVH-35" target="HZnLdI7anDRlDdsbVgVH-2">
          <mxGeometry width="100" height="100" relative="1" as="geometry">
            <mxPoint x="310" y="320" as="sourcePoint" />
            <mxPoint x="310" y="410" as="targetPoint" />
          </mxGeometry>
        </mxCell>
        <mxCell id="HZnLdI7anDRlDdsbVgVH-39" value="MEMPUNYAI" style="rhombus;whiteSpace=wrap;html=1;" vertex="1" parent="1">
          <mxGeometry x="520" y="250" width="110" height="80" as="geometry" />
        </mxCell>
        <mxCell id="HZnLdI7anDRlDdsbVgVH-40" value="" style="edgeStyle=orthogonalEdgeStyle;fontSize=12;html=1;endArrow=ERone;endFill=1;rounded=0;elbow=vertical;exitX=1;exitY=0.5;exitDx=0;exitDy=0;strokeWidth=3;fillColor=#dae8fc;strokeColor=#6c8ebf;entryX=0;entryY=0.5;entryDx=0;entryDy=0;" edge="1" parent="1" source="HZnLdI7anDRlDdsbVgVH-2" target="HZnLdI7anDRlDdsbVgVH-39">
          <mxGeometry width="100" height="100" relative="1" as="geometry">
            <mxPoint x="470" y="450" as="sourcePoint" />
            <mxPoint x="580" y="450" as="targetPoint" />
          </mxGeometry>
        </mxCell>
        <mxCell id="HZnLdI7anDRlDdsbVgVH-41" value="" style="edgeStyle=elbowEdgeStyle;fontSize=12;html=1;endArrow=ERoneToMany;rounded=0;strokeWidth=3;fillColor=#d5e8d4;strokeColor=#82b366;elbow=vertical;entryX=0;entryY=0.5;entryDx=0;entryDy=0;exitX=1;exitY=0.5;exitDx=0;exitDy=0;" edge="1" parent="1" source="HZnLdI7anDRlDdsbVgVH-39" target="HZnLdI7anDRlDdsbVgVH-4">
          <mxGeometry width="100" height="100" relative="1" as="geometry">
            <mxPoint x="660" y="330" as="sourcePoint" />
            <mxPoint x="660" y="410" as="targetPoint" />
          </mxGeometry>
        </mxCell>
        <mxCell id="HZnLdI7anDRlDdsbVgVH-50" style="edgeStyle=orthogonalEdgeStyle;rounded=0;orthogonalLoop=1;jettySize=auto;html=1;entryX=0.5;entryY=0;entryDx=0;entryDy=0;" edge="1" parent="1" source="HZnLdI7anDRlDdsbVgVH-42" target="HZnLdI7anDRlDdsbVgVH-7">
          <mxGeometry relative="1" as="geometry" />
        </mxCell>
        <mxCell id="HZnLdI7anDRlDdsbVgVH-42" value="status" style="ellipse;whiteSpace=wrap;html=1;" vertex="1" parent="1">
          <mxGeometry x="355" y="-170" width="60" height="40" as="geometry" />
        </mxCell>
        <mxCell id="HZnLdI7anDRlDdsbVgVH-49" style="edgeStyle=orthogonalEdgeStyle;rounded=0;orthogonalLoop=1;jettySize=auto;html=1;entryX=0.5;entryY=0;entryDx=0;entryDy=0;" edge="1" parent="1" source="HZnLdI7anDRlDdsbVgVH-43" target="HZnLdI7anDRlDdsbVgVH-7">
          <mxGeometry relative="1" as="geometry">
            <Array as="points">
              <mxPoint x="270" y="-70" />
              <mxPoint x="385" y="-70" />
            </Array>
          </mxGeometry>
        </mxCell>
        <mxCell id="HZnLdI7anDRlDdsbVgVH-43" value="pesan" style="ellipse;whiteSpace=wrap;html=1;" vertex="1" parent="1">
          <mxGeometry x="240" y="-170" width="60" height="40" as="geometry" />
        </mxCell>
        <mxCell id="HZnLdI7anDRlDdsbVgVH-51" style="edgeStyle=orthogonalEdgeStyle;rounded=0;orthogonalLoop=1;jettySize=auto;html=1;entryX=0.5;entryY=0;entryDx=0;entryDy=0;" edge="1" parent="1" source="HZnLdI7anDRlDdsbVgVH-44" target="HZnLdI7anDRlDdsbVgVH-7">
          <mxGeometry relative="1" as="geometry">
            <Array as="points">
              <mxPoint x="508" y="-70" />
              <mxPoint x="385" y="-70" />
            </Array>
          </mxGeometry>
        </mxCell>
        <mxCell id="HZnLdI7anDRlDdsbVgVH-44" value="tgl&lt;div&gt;pengiriman&lt;/div&gt;" style="ellipse;whiteSpace=wrap;html=1;" vertex="1" parent="1">
          <mxGeometry x="460" y="-170" width="95" height="40" as="geometry" />
        </mxCell>
        <mxCell id="HZnLdI7anDRlDdsbVgVH-48" value="MEMANGGIL" style="rhombus;whiteSpace=wrap;html=1;" vertex="1" parent="1">
          <mxGeometry x="330" y="90" width="110" height="80" as="geometry" />
        </mxCell>
        <mxCell id="HZnLdI7anDRlDdsbVgVH-52" value="" style="edgeStyle=elbowEdgeStyle;fontSize=12;html=1;endArrow=ERone;endFill=1;rounded=0;elbow=vertical;exitX=0.5;exitY=0;exitDx=0;exitDy=0;strokeWidth=3;fillColor=#dae8fc;strokeColor=#6c8ebf;entryX=0;entryY=0.5;entryDx=0;entryDy=0;" edge="1" parent="1" source="HZnLdI7anDRlDdsbVgVH-5" target="HZnLdI7anDRlDdsbVgVH-48">
          <mxGeometry width="100" height="100" relative="1" as="geometry">
            <mxPoint x="140" y="230" as="sourcePoint" />
            <mxPoint x="250" y="230" as="targetPoint" />
            <Array as="points">
              <mxPoint x="240" y="130" />
            </Array>
          </mxGeometry>
        </mxCell>
        <mxCell id="HZnLdI7anDRlDdsbVgVH-53" value="" style="edgeStyle=elbowEdgeStyle;fontSize=12;html=1;endArrow=ERoneToMany;rounded=0;strokeWidth=3;fillColor=#d5e8d4;strokeColor=#82b366;elbow=vertical;entryX=0.5;entryY=1;entryDx=0;entryDy=0;exitX=0.5;exitY=0;exitDx=0;exitDy=0;" edge="1" parent="1" source="HZnLdI7anDRlDdsbVgVH-48" target="HZnLdI7anDRlDdsbVgVH-7">
          <mxGeometry width="100" height="100" relative="1" as="geometry">
            <mxPoint x="480" y="80" as="sourcePoint" />
            <mxPoint x="480" y="160" as="targetPoint" />
          </mxGeometry>
        </mxCell>
        <mxCell id="HZnLdI7anDRlDdsbVgVH-62" style="edgeStyle=orthogonalEdgeStyle;rounded=0;orthogonalLoop=1;jettySize=auto;html=1;exitX=1;exitY=0.5;exitDx=0;exitDy=0;entryX=0;entryY=0.5;entryDx=0;entryDy=0;" edge="1" parent="1" source="HZnLdI7anDRlDdsbVgVH-54" target="HZnLdI7anDRlDdsbVgVH-6">
          <mxGeometry relative="1" as="geometry">
            <mxPoint x="-330" y="640.294117647059" as="targetPoint" />
          </mxGeometry>
        </mxCell>
        <mxCell id="HZnLdI7anDRlDdsbVgVH-54" value="tgl&lt;br&gt;pengiriman" style="ellipse;whiteSpace=wrap;html=1;" vertex="1" parent="1">
          <mxGeometry x="-440" y="620" width="70" height="40" as="geometry" />
        </mxCell>
        <mxCell id="HZnLdI7anDRlDdsbVgVH-65" style="edgeStyle=orthogonalEdgeStyle;rounded=0;orthogonalLoop=1;jettySize=auto;html=1;entryX=0.5;entryY=1;entryDx=0;entryDy=0;" edge="1" parent="1" source="HZnLdI7anDRlDdsbVgVH-55" target="HZnLdI7anDRlDdsbVgVH-6">
          <mxGeometry relative="1" as="geometry">
            <Array as="points">
              <mxPoint x="-245" y="700" />
              <mxPoint x="-260" y="700" />
            </Array>
          </mxGeometry>
        </mxCell>
        <mxCell id="HZnLdI7anDRlDdsbVgVH-55" value="judul" style="ellipse;whiteSpace=wrap;html=1;" vertex="1" parent="1">
          <mxGeometry x="-280" y="720" width="70" height="40" as="geometry" />
        </mxCell>
        <mxCell id="HZnLdI7anDRlDdsbVgVH-61" style="edgeStyle=orthogonalEdgeStyle;rounded=0;orthogonalLoop=1;jettySize=auto;html=1;exitX=1;exitY=0.5;exitDx=0;exitDy=0;entryX=0;entryY=0.5;entryDx=0;entryDy=0;" edge="1" parent="1" source="HZnLdI7anDRlDdsbVgVH-56" target="HZnLdI7anDRlDdsbVgVH-6">
          <mxGeometry relative="1" as="geometry" />
        </mxCell>
        <mxCell id="HZnLdI7anDRlDdsbVgVH-56" value="kata_kunci" style="ellipse;whiteSpace=wrap;html=1;" vertex="1" parent="1">
          <mxGeometry x="-440" y="560" width="70" height="40" as="geometry" />
        </mxCell>
        <mxCell id="HZnLdI7anDRlDdsbVgVH-60" style="edgeStyle=orthogonalEdgeStyle;rounded=0;orthogonalLoop=1;jettySize=auto;html=1;entryX=0.5;entryY=0;entryDx=0;entryDy=0;" edge="1" parent="1" source="HZnLdI7anDRlDdsbVgVH-57" target="HZnLdI7anDRlDdsbVgVH-6">
          <mxGeometry relative="1" as="geometry">
            <Array as="points">
              <mxPoint x="-260" y="520" />
            </Array>
          </mxGeometry>
        </mxCell>
        <mxCell id="HZnLdI7anDRlDdsbVgVH-57" value="abstrak" style="ellipse;whiteSpace=wrap;html=1;" vertex="1" parent="1">
          <mxGeometry x="-370" y="500" width="70" height="40" as="geometry" />
        </mxCell>
        <mxCell id="HZnLdI7anDRlDdsbVgVH-63" style="edgeStyle=orthogonalEdgeStyle;rounded=0;orthogonalLoop=1;jettySize=auto;html=1;entryX=0.5;entryY=1;entryDx=0;entryDy=0;" edge="1" parent="1" source="HZnLdI7anDRlDdsbVgVH-58" target="HZnLdI7anDRlDdsbVgVH-6">
          <mxGeometry relative="1" as="geometry" />
        </mxCell>
        <mxCell id="HZnLdI7anDRlDdsbVgVH-58" value="status" style="ellipse;whiteSpace=wrap;html=1;" vertex="1" parent="1">
          <mxGeometry x="-440" y="680" width="70" height="40" as="geometry" />
        </mxCell>
        <mxCell id="HZnLdI7anDRlDdsbVgVH-64" style="edgeStyle=orthogonalEdgeStyle;rounded=0;orthogonalLoop=1;jettySize=auto;html=1;entryX=0.5;entryY=1;entryDx=0;entryDy=0;" edge="1" parent="1" source="HZnLdI7anDRlDdsbVgVH-59" target="HZnLdI7anDRlDdsbVgVH-6">
          <mxGeometry relative="1" as="geometry">
            <Array as="points">
              <mxPoint x="-330" y="700" />
              <mxPoint x="-260" y="700" />
            </Array>
          </mxGeometry>
        </mxCell>
        <mxCell id="HZnLdI7anDRlDdsbVgVH-59" value="file_upload" style="ellipse;whiteSpace=wrap;html=1;" vertex="1" parent="1">
          <mxGeometry x="-365" y="720" width="70" height="40" as="geometry" />
        </mxCell>
        <mxCell id="HZnLdI7anDRlDdsbVgVH-67" style="edgeStyle=orthogonalEdgeStyle;rounded=0;orthogonalLoop=1;jettySize=auto;html=1;entryX=0.5;entryY=1;entryDx=0;entryDy=0;" edge="1" parent="1" source="HZnLdI7anDRlDdsbVgVH-66" target="HZnLdI7anDRlDdsbVgVH-8">
          <mxGeometry relative="1" as="geometry" />
        </mxCell>
        <mxCell id="HZnLdI7anDRlDdsbVgVH-66" value="tgl&lt;div&gt;pengiriman&lt;/div&gt;" style="ellipse;whiteSpace=wrap;html=1;" vertex="1" parent="1">
          <mxGeometry x="125" y="680" width="70" height="40" as="geometry" />
        </mxCell>
        <mxCell id="HZnLdI7anDRlDdsbVgVH-69" value="MEMILIKI" style="rhombus;whiteSpace=wrap;html=1;" vertex="1" parent="1">
          <mxGeometry x="330" y="560" width="110" height="80" as="geometry" />
        </mxCell>
        <mxCell id="HZnLdI7anDRlDdsbVgVH-70" value="" style="edgeStyle=orthogonalEdgeStyle;fontSize=12;html=1;endArrow=ERone;endFill=1;rounded=0;elbow=vertical;entryX=0.5;entryY=1;entryDx=0;entryDy=0;exitX=0.75;exitY=1;exitDx=0;exitDy=0;strokeWidth=3;fillColor=#dae8fc;strokeColor=#6c8ebf;" edge="1" parent="1" source="HZnLdI7anDRlDdsbVgVH-6" target="HZnLdI7anDRlDdsbVgVH-69">
          <mxGeometry width="100" height="100" relative="1" as="geometry">
            <mxPoint x="-80" y="760.29" as="sourcePoint" />
            <mxPoint x="-170" y="760.29" as="targetPoint" />
            <Array as="points">
              <mxPoint x="-230" y="670" />
              <mxPoint x="-150" y="670" />
              <mxPoint x="-150" y="760" />
              <mxPoint x="385" y="760" />
            </Array>
          </mxGeometry>
        </mxCell>
        <mxCell id="HZnLdI7anDRlDdsbVgVH-71" value="" style="edgeStyle=elbowEdgeStyle;fontSize=12;html=1;endArrow=ERoneToMany;rounded=0;strokeWidth=3;fillColor=#d5e8d4;strokeColor=#82b366;elbow=vertical;entryX=0.5;entryY=1;entryDx=0;entryDy=0;exitX=0.5;exitY=0;exitDx=0;exitDy=0;" edge="1" parent="1" source="HZnLdI7anDRlDdsbVgVH-69" target="HZnLdI7anDRlDdsbVgVH-2">
          <mxGeometry width="100" height="100" relative="1" as="geometry">
            <mxPoint x="506.90999999999997" y="490" as="sourcePoint" />
            <mxPoint x="506.90999999999997" y="570" as="targetPoint" />
          </mxGeometry>
        </mxCell>
        <mxCell id="HZnLdI7anDRlDdsbVgVH-76" style="edgeStyle=orthogonalEdgeStyle;rounded=0;orthogonalLoop=1;jettySize=auto;html=1;entryX=0;entryY=0.5;entryDx=0;entryDy=0;" edge="1" parent="1" source="HZnLdI7anDRlDdsbVgVH-72" target="HZnLdI7anDRlDdsbVgVH-2">
          <mxGeometry relative="1" as="geometry">
            <Array as="points">
              <mxPoint x="265" y="440" />
            </Array>
          </mxGeometry>
        </mxCell>
        <mxCell id="HZnLdI7anDRlDdsbVgVH-72" value="tgl&lt;div&gt;pengiriman&lt;/div&gt;" style="ellipse;whiteSpace=wrap;html=1;" vertex="1" parent="1">
          <mxGeometry x="230" y="500" width="70" height="40" as="geometry" />
        </mxCell>
        <mxCell id="HZnLdI7anDRlDdsbVgVH-74" style="edgeStyle=orthogonalEdgeStyle;rounded=0;orthogonalLoop=1;jettySize=auto;html=1;entryX=0;entryY=0.5;entryDx=0;entryDy=0;" edge="1" parent="1" source="HZnLdI7anDRlDdsbVgVH-73" target="HZnLdI7anDRlDdsbVgVH-2">
          <mxGeometry relative="1" as="geometry">
            <Array as="points">
              <mxPoint x="265" y="440" />
            </Array>
          </mxGeometry>
        </mxCell>
        <mxCell id="HZnLdI7anDRlDdsbVgVH-73" value="status" style="ellipse;whiteSpace=wrap;html=1;" vertex="1" parent="1">
          <mxGeometry x="230" y="350" width="70" height="40" as="geometry" />
        </mxCell>
        <mxCell id="HZnLdI7anDRlDdsbVgVH-81" style="edgeStyle=orthogonalEdgeStyle;rounded=0;orthogonalLoop=1;jettySize=auto;html=1;" edge="1" parent="1" source="HZnLdI7anDRlDdsbVgVH-77" target="HZnLdI7anDRlDdsbVgVH-4">
          <mxGeometry relative="1" as="geometry" />
        </mxCell>
        <mxCell id="HZnLdI7anDRlDdsbVgVH-77" value="tgl&lt;div&gt;review&lt;/div&gt;" style="ellipse;whiteSpace=wrap;html=1;" vertex="1" parent="1">
          <mxGeometry x="745" y="360" width="70" height="40" as="geometry" />
        </mxCell>
        <mxCell id="HZnLdI7anDRlDdsbVgVH-82" style="edgeStyle=orthogonalEdgeStyle;rounded=0;orthogonalLoop=1;jettySize=auto;html=1;entryX=1;entryY=0.5;entryDx=0;entryDy=0;" edge="1" parent="1" source="HZnLdI7anDRlDdsbVgVH-78" target="HZnLdI7anDRlDdsbVgVH-4">
          <mxGeometry relative="1" as="geometry" />
        </mxCell>
        <mxCell id="HZnLdI7anDRlDdsbVgVH-78" value="rekomendasi" style="ellipse;whiteSpace=wrap;html=1;" vertex="1" parent="1">
          <mxGeometry x="920" y="270" width="110" height="40" as="geometry" />
        </mxCell>
        <mxCell id="HZnLdI7anDRlDdsbVgVH-80" style="edgeStyle=orthogonalEdgeStyle;rounded=0;orthogonalLoop=1;jettySize=auto;html=1;" edge="1" parent="1" source="HZnLdI7anDRlDdsbVgVH-79" target="HZnLdI7anDRlDdsbVgVH-4">
          <mxGeometry relative="1" as="geometry" />
        </mxCell>
        <mxCell id="HZnLdI7anDRlDdsbVgVH-79" value="komentar" style="ellipse;whiteSpace=wrap;html=1;" vertex="1" parent="1">
          <mxGeometry x="745" y="160" width="70" height="40" as="geometry" />
        </mxCell>
      </root>
    </mxGraphModel>
  </diagram>
</mxfile>
